<?xml version="1.0" standalone="no"?>
<!DOCTYPE svg PUBLIC "-//W3C//DTD SVG 20010904//EN"
 "http://www.w3.org/TR/2001/REC-SVG-20010904/DTD/svg10.dtd">
<svg version="1.0" xmlns="http://www.w3.org/2000/svg"
 width="301.000000pt" height="301.000000pt" viewBox="0 0 301.000000 301.000000"
 preserveAspectRatio="xMidYMid meet">
<metadata>
Created by potrace 1.11, written by Peter Selinger 2001-2013
</metadata>
<g transform="translate(0.000000,301.000000) scale(0.100000,-0.100000)"
fill="#000000" stroke="none">
<path d="M1760 2790 c-37 -9 -43 -58 -36 -294 6 -234 8 -241 78 -252 28 -5 40
-2 58 16 15 15 19 27 13 38 -4 9 -8 118 -9 242 0 124 -3 231 -7 237 -8 13 -64
21 -97 13z"/>
<path d="M1271 2593 c-19 -17 -20 -21 -7 -75 l14 -57 -32 -10 c-17 -5 -43 -12
-58 -15 -64 -14 -13 -95 52 -82 28 5 30 3 30 -23 0 -25 -5 -30 -35 -35 -20 -4
-44 -4 -54 -1 -10 3 -24 -1 -31 -10 -10 -12 -8 -21 7 -47 20 -34 40 -39 96
-25 22 6 27 4 27 -12 0 -28 24 -43 67 -39 37 3 38 4 36 39 -2 39 11 49 64 49
19 0 22 -6 25 -46 4 -57 39 -91 83 -80 26 7 26 7 19 76 l-7 70 30 0 c34 0 53
16 53 45 0 29 -30 55 -63 55 -24 0 -27 4 -27 34 0 34 1 35 43 38 40 3 42 5 45
36 5 46 -14 65 -55 59 -29 -5 -33 -3 -33 17 0 32 -19 46 -61 46 -46 0 -60 -16
-52 -62 5 -36 4 -37 -31 -44 -46 -8 -53 -2 -38 39 16 45 15 64 -4 71 -30 12
-82 6 -103 -11z m177 -248 c-2 -2 -20 -6 -40 -10 -37 -7 -38 -6 -38 23 0 26 4
31 38 39 36 9 37 8 40 -20 2 -16 2 -30 0 -32z"/>
<path d="M1758 2193 c-10 -2 -18 -8 -19 -11 0 -4 -2 -38 -3 -76 -3 -62 -1 -72
20 -93 26 -25 85 -32 101 -10 15 18 24 136 13 157 -5 10 -24 23 -41 29 -33 11
-42 12 -71 4z"/>
<path d="M490 1941 c-6 -17 -9 -34 -6 -40 4 -5 1 -13 -5 -17 -16 -9 -80 -154
-74 -164 6 -9 181 -120 189 -120 11 0 77 223 72 244 -3 14 -28 37 -64 59 -33
20 -65 43 -72 52 -18 22 -26 19 -40 -14z m85 -106 c30 -19 55 -40 54 -47 0 -7
-8 -35 -17 -61 l-17 -48 -65 42 c-36 23 -67 43 -69 45 -6 6 18 75 31 92 15 18
23 16 83 -23z"/>
<path d="M2465 1940 c-3 -5 -15 -10 -26 -10 -22 0 -24 -9 -7 -45 12 -26 17
-27 68 -14 10 3 22 -19 42 -76 15 -44 30 -84 32 -90 2 -5 8 1 13 15 16 39 -69
230 -102 230 -7 0 -17 -4 -20 -10z"/>
<path d="M2236 1883 c-12 -12 -6 -33 9 -33 8 0 15 6 15 14 0 17 -14 28 -24 19z"/>
<path d="M2369 1875 c-3 -2 -16 -6 -30 -8 -19 -3 -23 -9 -21 -28 6 -39 27 -55
57 -41 23 11 26 9 35 -13 11 -28 34 -35 26 -7 -2 9 -8 28 -11 42 -11 39 -42
69 -56 55z"/>
<path d="M711 1837 c-6 -6 -11 -25 -11 -42 0 -23 7 -35 25 -45 28 -15 29 -18
15 -54 -15 -40 8 -32 26 9 22 54 18 87 -15 116 -21 19 -33 23 -40 16z"/>
<path d="M1105 1830 c-4 -6 -2 -17 5 -25 9 -11 7 -20 -9 -42 -10 -15 -22 -51
-26 -80 -6 -47 -5 -53 17 -66 13 -8 41 -18 63 -21 62 -11 74 -16 85 -36 17
-32 -5 -68 -53 -89 -49 -21 -72 -44 -63 -66 8 -23 16 -19 84 44 l62 58 0 66
c0 75 -4 80 -80 92 -72 12 -78 18 -69 67 4 24 10 52 14 64 7 23 -18 53 -30 34z"/>
<path d="M2217 1798 c-4 -13 0 -33 8 -45 16 -24 20 -53 8 -53 -19 0 -93 46
-93 58 0 28 -25 4 -28 -26 -2 -24 3 -38 22 -55 23 -21 24 -28 16 -57 -8 -28
-6 -40 10 -68 16 -27 18 -37 9 -48 -19 -23 -4 -27 33 -8 58 30 61 44 13 87
-29 26 -46 57 -31 57 19 0 136 -62 144 -76 9 -17 11 -16 23 8 16 35 -6 70 -61
98 -28 14 -38 25 -33 36 3 8 12 13 19 10 19 -7 33 24 24 50 -5 12 -23 29 -41
38 -39 20 -36 20 -42 -6z"/>
<path d="M819 1764 c-16 -45 -3 -60 77 -90 48 -17 73 -31 70 -39 -13 -35 -38
-176 -32 -182 15 -16 35 27 44 99 6 46 17 84 26 93 19 20 21 49 4 62 -7 5 -46
22 -85 37 -40 15 -73 32 -73 37 0 19 -21 8 -31 -17z"/>
<path d="M1035 1760 c-8 -14 3 -30 21 -30 8 0 14 9 14 20 0 21 -24 28 -35 10z"/>
<path d="M2360 1749 c0 -14 5 -19 17 -17 26 5 29 38 4 38 -15 0 -21 -6 -21
-21z"/>
<path d="M1984 1685 c4 -22 3 -35 -4 -35 -5 0 -10 6 -10 14 0 20 -61 40 -72
24 -14 -23 -8 -57 12 -71 18 -12 19 -18 10 -39 -8 -17 -9 -40 -2 -77 5 -29 7
-61 5 -72 -4 -13 0 -19 11 -19 22 0 31 45 17 90 -17 57 -14 79 18 111 52 52
121 26 121 -45 0 -32 -3 -35 -50 -51 -49 -16 -50 -18 -50 -55 0 -27 4 -38 13
-35 6 2 36 11 66 20 l54 18 -6 81 c-3 45 -10 93 -16 108 -15 41 -51 68 -89 68
-34 0 -34 -1 -28 -35z"/>
<path d="M2582 1676 c-44 -31 -45 -33 -38 -45 9 -14 86 36 86 55 0 19 -9 17
-48 -10z"/>
<path d="M1310 1641 c-14 -27 -13 -47 6 -82 13 -27 14 -33 1 -47 -23 -27 -27
-49 -15 -83 9 -27 8 -34 -6 -44 -15 -12 -15 -13 0 -19 28 -11 61 -7 74 9 11
13 9 24 -10 64 -12 27 -20 55 -18 61 5 16 118 -115 118 -136 0 -23 19 -16 32
11 13 30 -2 72 -38 106 -13 12 -24 28 -24 35 0 19 21 29 30 14 13 -21 30 -1
30 33 -1 28 -44 97 -54 86 -19 -23 -26 -51 -15 -70 8 -16 8 -24 -1 -33 -14
-14 -67 46 -76 87 -8 32 -19 35 -34 8z"/>
<path d="M1652 1619 l3 -44 45 0 c25 0 62 3 83 7 34 6 39 4 47 -18 6 -14 10
-59 10 -100 0 -73 12 -96 28 -53 9 24 -13 201 -28 230 -12 21 -35 23 -115 9
-33 -5 -55 -4 -63 3 -11 8 -13 2 -10 -34z"/>
<path d="M808 1633 c-9 -10 -19 -33 -23 -50 -3 -18 -11 -35 -16 -38 -15 -10
-10 -35 6 -35 21 0 42 38 49 93 3 26 4 47 2 47 -1 0 -10 -8 -18 -17z"/>
<path d="M2436 1568 c-9 -37 -7 -98 4 -98 13 0 17 11 25 73 5 37 3 47 -8 47
-8 0 -17 -10 -21 -22z"/>
<path d="M814 1414 c8 -50 20 -73 33 -61 11 11 -11 100 -26 105 -11 4 -12 -5
-7 -44z"/>
<path d="M882 1413 c5 -26 38 -29 38 -4 0 15 -6 21 -21 21 -14 0 -19 -5 -17
-17z"/>
<path d="M2057 1413 c-14 -13 -6 -33 13 -33 13 0 20 7 20 20 0 19 -20 27 -33
13z"/>
<path d="M1986 1385 c-3 -9 1 -18 10 -22 19 -7 39 11 30 26 -10 16 -33 13 -40
-4z"/>
<path d="M2037 1344 c-14 -14 -7 -35 11 -32 9 2 17 10 17 17 0 16 -18 25 -28
15z"/>
<path d="M1300 1321 c0 -15 6 -21 21 -21 14 0 19 5 17 17 -5 26 -38 29 -38 4z"/>
<path d="M1365 1320 c-8 -14 3 -30 21 -30 8 0 14 9 14 20 0 21 -24 28 -35 10z"/>
<path d="M1430 1310 c0 -15 5 -20 18 -18 9 2 17 10 17 18 0 8 -8 16 -17 18
-13 2 -18 -3 -18 -18z"/>
<path d="M1330 1256 c0 -8 4 -17 9 -20 11 -7 33 18 24 27 -12 12 -33 7 -33 -7z"/>
<path d="M1437 1263 c-4 -3 -7 -12 -7 -20 0 -17 26 -17 33 1 8 21 -11 35 -26
19z"/>
<path d="M1049 1110 c-16 -54 -8 -66 61 -94 37 -15 56 -28 58 -42 1 -10 -8
-63 -21 -117 -24 -96 -20 -141 7 -75 19 48 50 242 42 271 -4 18 -19 30 -52 43
-26 10 -55 26 -65 37 -17 19 -18 18 -30 -23z"/>
<path d="M1284 1125 c-3 -8 -3 -19 1 -25 11 -18 25 -11 25 15 0 27 -17 34 -26
10z"/>
<path d="M1884 1102 c2 -10 7 -29 10 -44 5 -21 13 -27 39 -30 27 -2 33 -8 35
-30 4 -31 22 -39 22 -10 0 26 -29 122 -38 123 -4 1 -22 3 -40 5 -26 2 -32 -1
-28 -14z"/>
<path d="M1780 1070 c-38 -12 -59 -15 -67 -8 -18 14 -18 -62 0 -85 11 -16 16
-16 62 -2 28 8 55 15 61 15 7 0 19 -46 29 -110 10 -61 22 -113 26 -116 22 -13
21 37 -3 131 -16 68 -22 108 -16 121 11 24 -6 74 -24 73 -7 -1 -38 -9 -68 -19z"/>
<path d="M1236 1058 c-13 -50 -7 -78 19 -88 14 -5 25 -13 25 -18 0 -4 -9 -57
-20 -117 -11 -60 -18 -111 -15 -113 15 -15 33 43 44 137 16 156 15 174 -14
199 -31 27 -31 27 -39 0z"/>
<path d="M1344 1049 c-19 -23 -24 -72 -11 -109 11 -30 10 -39 -6 -68 -16 -26
-18 -43 -13 -84 5 -37 4 -53 -6 -59 -19 -12 4 -32 32 -27 39 5 46 30 26 96
-10 33 -17 65 -14 73 6 17 98 -144 98 -173 1 -22 1 -22 15 -4 23 30 18 86 -14
142 -21 39 -26 56 -18 69 7 13 11 14 17 5 13 -21 30 -1 30 33 0 18 -8 49 -19
70 -16 31 -21 35 -31 22 -8 -9 -11 -32 -8 -59 8 -66 -6 -77 -33 -25 -12 24
-25 59 -28 78 -5 27 -8 31 -17 20z"/>
<path d="M1600 1016 c0 -49 9 -66 35 -66 25 0 35 -17 35 -58 1 -22 2 -24 10
-11 13 23 0 117 -19 139 -9 10 -26 21 -38 25 -21 6 -23 3 -23 -29z"/>
<path d="M1737 888 c-10 -27 5 -169 17 -165 7 3 10 29 9 68 -1 71 -15 123 -26
97z"/>
<path d="M1997 757 c-3 -8 -1 -20 4 -28 11 -19 34 3 26 25 -8 20 -23 21 -30 3z"/>
<path d="M1872 698 c2 -13 8 -23 13 -23 6 0 11 10 13 23 2 15 -2 22 -13 22
-11 0 -15 -7 -13 -22z"/>
<path d="M1828 704 c0 -5 -1 -29 -2 -54 -1 -39 -4 -45 -24 -48 -22 -3 -40 -27
-29 -38 3 -3 24 0 47 6 l41 11 -6 42 c-4 23 -7 50 -9 59 -2 20 -15 36 -18 22z"/>
<path d="M2020 670 c0 -13 5 -20 13 -17 6 2 12 10 12 17 0 7 -6 15 -12 18 -8
2 -13 -5 -13 -18z"/>
<path d="M1371 614 c-12 -19 -21 -39 -21 -45 0 -16 17 -10 33 14 l15 22 11
-27 c10 -27 31 -39 31 -18 0 12 -38 90 -44 90 -2 0 -13 -16 -25 -36z"/>
<path d="M2030 563 c0 -12 5 -34 12 -48 10 -21 16 -25 39 -20 31 7 30 11 55
-115 19 -91 29 -114 40 -86 6 17 -47 230 -67 267 -5 9 -24 19 -44 21 -31 4
-35 1 -35 -19z"/>
<path d="M991 561 c-7 -12 -11 -36 -9 -54 3 -30 7 -33 67 -52 36 -12 66 -26
68 -31 2 -6 -7 -57 -20 -113 -13 -56 -20 -104 -15 -107 14 -9 34 55 52 169 21
131 16 146 -63 166 -28 7 -55 20 -60 29 -7 13 -10 12 -20 -7z"/>
<path d="M1234 565 c-9 -23 14 -45 26 -25 5 8 8 19 7 24 -6 17 -27 18 -33 1z"/>
<path d="M1920 516 c0 -43 14 -61 47 -61 24 0 28 -4 31 -32 2 -18 8 -33 14
-33 14 0 1 98 -17 126 -8 12 -28 24 -44 26 -29 4 -31 2 -31 -26z"/>
<path d="M858 507 c-11 -9 -14 -22 -11 -40 6 -30 11 -32 35 -14 11 9 14 22 11
40 -6 30 -11 32 -35 14z"/>
<path d="M1186 504 c-14 -37 -6 -74 19 -86 29 -13 30 -21 10 -125 -8 -43 -15
-87 -15 -98 0 -17 2 -18 15 -4 21 21 50 261 35 289 -6 11 -17 20 -25 20 -8 0
-15 5 -15 10 0 16 -17 12 -24 -6z"/>
<path d="M1798 505 c-41 -9 -60 -9 -68 -1 -8 8 -10 -2 -8 -39 l3 -50 40 0 c22
0 54 3 71 7 36 8 33 17 55 -139 6 -46 15 -83 19 -83 20 0 20 46 1 133 -11 51
-18 103 -14 115 8 33 -5 72 -25 71 -9 -1 -43 -7 -74 -14z"/>
<path d="M1296 488 c-19 -26 -21 -71 -5 -100 8 -16 7 -29 -6 -59 -13 -28 -16
-52 -12 -88 5 -40 3 -51 -11 -56 -15 -6 -15 -8 3 -15 61 -25 88 11 60 83 -9
24 -15 54 -13 66 2 16 14 2 51 -59 26 -43 47 -86 47 -95 0 -20 16 -19 24 1 13
34 5 80 -24 130 -25 45 -27 54 -15 64 11 9 15 9 15 1 0 -22 28 -10 34 15 5 17
-1 42 -17 76 -24 49 -25 50 -37 29 -6 -13 -10 -41 -8 -63 2 -23 -2 -43 -7 -45
-14 -5 -66 103 -59 122 9 22 -3 18 -20 -7z"/>
<path d="M1617 493 c-11 -10 -8 -62 3 -84 6 -11 21 -19 35 -19 22 0 25 -4 25
-35 0 -19 5 -35 10 -35 14 0 12 100 -3 130 -7 14 -21 27 -32 29 -11 2 -23 7
-26 12 -3 5 -8 6 -12 2z"/>
<path d="M1477 473 c-4 -3 -7 -15 -7 -25 0 -15 8 -18 60 -18 57 0 60 1 60 25
0 24 -3 25 -53 25 -30 0 -57 -3 -60 -7z"/>
<path d="M816 355 c-13 -10 -17 -21 -12 -39 7 -29 13 -31 39 -12 14 11 16 19
7 40 -11 30 -9 30 -34 11z"/>
<path d="M1757 344 c-11 -11 -9 -174 3 -174 23 0 29 38 17 109 -7 40 -15 69
-20 65z"/>
<path d="M2188 257 c-27 -10 -37 -31 -20 -40 13 -8 72 23 72 38 0 17 -13 18
-52 2z"/>
<path d="M2120 220 c0 -28 26 -100 36 -100 8 0 9 13 3 46 -5 25 -11 50 -14 55
-8 12 -25 12 -25 -1z"/>
<path d="M2013 184 c-8 -21 13 -42 28 -27 13 13 5 43 -11 43 -6 0 -13 -7 -17
-16z"/>
<path d="M1830 130 c0 -15 5 -20 18 -18 9 2 17 10 17 18 0 8 -8 16 -17 18 -13
2 -18 -3 -18 -18z"/>
<path d="M1330 70 c0 -33 4 -60 10 -60 6 0 10 13 10 29 0 16 3 43 6 60 5 24 3
31 -10 31 -13 0 -16 -11 -16 -60z"/>
<path d="M2032 104 c4 -21 22 -23 26 -1 2 10 -3 17 -13 17 -10 0 -15 -6 -13
-16z"/>
</g>
</svg>
